<mxfile host="65bd71144e">
    <diagram id="oFt2jnVxkCNsfnanv4ok" name="第 1 页">
        <mxGraphModel dx="648" dy="575" grid="1" gridSize="10" guides="1" tooltips="1" connect="1" arrows="1" fold="1" page="1" pageScale="1" pageWidth="827" pageHeight="1169" background="#F4F1DE" math="0" shadow="0">
            <root>
                <mxCell id="0"/>
                <mxCell id="1" parent="0"/>
                <mxCell id="14" value="" style="whiteSpace=wrap;html=1;fillColor=#f5f5f5;strokeColor=#666666;fontColor=#333333;" vertex="1" parent="1">
                    <mxGeometry x="20" y="100" width="420" height="360" as="geometry"/>
                </mxCell>
                <mxCell id="2" value="" style="whiteSpace=wrap;html=1;fontColor=#393C56;strokeColor=#E07A5F;fillColor=#F2CC8F;" vertex="1" parent="1">
                    <mxGeometry x="90" y="150" width="310" height="70" as="geometry"/>
                </mxCell>
                <mxCell id="3" value="" style="whiteSpace=wrap;html=1;fontColor=#393C56;strokeColor=#E07A5F;fillColor=#F2CC8F;" vertex="1" parent="1">
                    <mxGeometry x="90" y="330" width="310" height="70" as="geometry"/>
                </mxCell>
                <mxCell id="4" value="" style="whiteSpace=wrap;html=1;fontColor=#393C56;strokeColor=#E07A5F;fillColor=#F2CC8F;" vertex="1" parent="1">
                    <mxGeometry x="90" y="240" width="310" height="70" as="geometry"/>
                </mxCell>
                <mxCell id="5" value="partion1" style="text;html=1;align=center;verticalAlign=middle;resizable=0;points=[];autosize=1;strokeColor=none;fontColor=#393C56;" vertex="1" parent="1">
                    <mxGeometry x="30" y="180" width="60" height="20" as="geometry"/>
                </mxCell>
                <mxCell id="6" value="partion1" style="text;html=1;align=center;verticalAlign=middle;resizable=0;points=[];autosize=1;strokeColor=none;fontColor=#393C56;" vertex="1" parent="1">
                    <mxGeometry x="30" y="260" width="60" height="20" as="geometry"/>
                </mxCell>
                <mxCell id="7" value="partion2" style="text;html=1;align=center;verticalAlign=middle;resizable=0;points=[];autosize=1;strokeColor=none;fontColor=#393C56;" vertex="1" parent="1">
                    <mxGeometry x="30" y="355" width="60" height="20" as="geometry"/>
                </mxCell>
                <mxCell id="8" value="1" style="whiteSpace=wrap;html=1;fontColor=#393C56;strokeColor=#E07A5F;fillColor=#F2CC8F;" vertex="1" parent="1">
                    <mxGeometry x="100" y="165" width="50" height="45" as="geometry"/>
                </mxCell>
                <mxCell id="9" value="3" style="whiteSpace=wrap;html=1;fontColor=#393C56;strokeColor=#E07A5F;fillColor=#F2CC8F;" vertex="1" parent="1">
                    <mxGeometry x="100" y="342.5" width="50" height="45" as="geometry"/>
                </mxCell>
                <mxCell id="10" value="2" style="whiteSpace=wrap;html=1;fontColor=#393C56;strokeColor=#E07A5F;fillColor=#F2CC8F;" vertex="1" parent="1">
                    <mxGeometry x="100" y="252.5" width="50" height="45" as="geometry"/>
                </mxCell>
                <mxCell id="11" value="4" style="whiteSpace=wrap;html=1;fontColor=#393C56;strokeColor=#E07A5F;fillColor=#F2CC8F;" vertex="1" parent="1">
                    <mxGeometry x="170" y="165" width="50" height="45" as="geometry"/>
                </mxCell>
                <mxCell id="12" value="5" style="whiteSpace=wrap;html=1;fontColor=#393C56;strokeColor=#E07A5F;fillColor=#F2CC8F;" vertex="1" parent="1">
                    <mxGeometry x="170" y="252.5" width="50" height="45" as="geometry"/>
                </mxCell>
                <mxCell id="13" value="6" style="whiteSpace=wrap;html=1;fontColor=#393C56;strokeColor=#E07A5F;fillColor=#F2CC8F;" vertex="1" parent="1">
                    <mxGeometry x="170" y="342.5" width="50" height="45" as="geometry"/>
                </mxCell>
            </root>
        </mxGraphModel>
    </diagram>
</mxfile>